<svg height="2942" width="720" xmlns="http://www.w3.org/2000/svg">
<rect height="2942" fill="#555" width="720"></rect>
<text fill="#7f7" font-family="Courier New" font-size="12" xml:space="preserve">
<tspan x="10" y="26">89 megabytes installed</tspan>
<tspan x="10" y="42"></tspan>
<tspan x="10" y="58">node_modules</tspan>
<tspan x="10" y="74">└─┬ sweet.js@3.0.1 </tspan>
<tspan x="10" y="90">  ├─┬ babel-core@6.24.1 </tspan>
<tspan x="10" y="106">  │ ├─┬ babel-code-frame@6.22.0 </tspan>
<tspan x="10" y="122">  │ │ ├─┬ chalk@1.1.3 </tspan>
<tspan x="10" y="138">  │ │ │ ├── ansi-styles@2.2.1 </tspan>
<tspan x="10" y="154">  │ │ │ ├── escape-string-regexp@1.0.5 </tspan>
<tspan x="10" y="170">  │ │ │ ├── has-ansi@2.0.0 </tspan>
<tspan x="10" y="186">  │ │ │ └── supports-color@2.0.0 </tspan>
<tspan x="10" y="202">  │ │ └── js-tokens@3.0.1 </tspan>
<tspan x="10" y="218">  │ ├─┬ babel-generator@6.24.1 </tspan>
<tspan x="10" y="234">  │ │ ├─┬ detect-indent@4.0.0 </tspan>
<tspan x="10" y="250">  │ │ │ └─┬ repeating@2.0.1 </tspan>
<tspan x="10" y="266">  │ │ │   └── is-finite@1.0.2 </tspan>
<tspan x="10" y="282">  │ │ ├── jsesc@1.3.0 </tspan>
<tspan x="10" y="298">  │ │ └── trim-right@1.0.1 </tspan>
<tspan x="10" y="314">  │ ├── babel-helpers@6.24.1 </tspan>
<tspan x="10" y="330">  │ ├── babel-messages@6.23.0 </tspan>
<tspan x="10" y="346">  │ ├─┬ babel-register@6.24.1 </tspan>
<tspan x="10" y="362">  │ │ ├── core-js@2.4.1 </tspan>
<tspan x="10" y="378">  │ │ ├─┬ home-or-tmp@2.0.0 </tspan>
<tspan x="10" y="394">  │ │ │ ├── os-homedir@1.0.2 </tspan>
<tspan x="10" y="410">  │ │ │ └── os-tmpdir@1.0.2 </tspan>
<tspan x="10" y="426">  │ │ ├─┬ mkdirp@0.5.1 </tspan>
<tspan x="10" y="442">  │ │ │ └── minimist@0.0.8 </tspan>
<tspan x="10" y="458">  │ │ └── source-map-support@0.4.14 </tspan>
<tspan x="10" y="474">  │ ├─┬ babel-runtime@6.23.0 </tspan>
<tspan x="10" y="490">  │ │ └── regenerator-runtime@0.10.3 </tspan>
<tspan x="10" y="506">  │ ├── babel-template@6.24.1 </tspan>
<tspan x="10" y="522">  │ ├─┬ babel-traverse@6.24.1 </tspan>
<tspan x="10" y="538">  │ │ ├── globals@9.17.0 </tspan>
<tspan x="10" y="554">  │ │ └─┬ invariant@2.2.2 </tspan>
<tspan x="10" y="570">  │ │   └── loose-envify@1.3.1 </tspan>
<tspan x="10" y="586">  │ ├─┬ babel-types@6.24.1 </tspan>
<tspan x="10" y="602">  │ │ └── to-fast-properties@1.0.2 </tspan>
<tspan x="10" y="618">  │ ├── babylon@6.16.1 </tspan>
<tspan x="10" y="634">  │ ├── convert-source-map@1.5.0 </tspan>
<tspan x="10" y="650">  │ ├─┬ debug@2.6.3 </tspan>
<tspan x="10" y="666">  │ │ └── ms@0.7.2 </tspan>
<tspan x="10" y="682">  │ ├── json5@0.5.1 </tspan>
<tspan x="10" y="698">  │ ├── lodash@4.17.4 </tspan>
<tspan x="10" y="714">  │ ├─┬ minimatch@3.0.3 </tspan>
<tspan x="10" y="730">  │ │ └─┬ brace-expansion@1.1.7 </tspan>
<tspan x="10" y="746">  │ │   ├── balanced-match@0.4.2 </tspan>
<tspan x="10" y="762">  │ │   └── concat-map@0.0.1 </tspan>
<tspan x="10" y="778">  │ ├── path-is-absolute@1.0.1 </tspan>
<tspan x="10" y="794">  │ ├── private@0.1.7 </tspan>
<tspan x="10" y="810">  │ ├── slash@1.0.0 </tspan>
<tspan x="10" y="826">  │ └── source-map@0.5.6 </tspan>
<tspan x="10" y="842">  ├── immutable@3.8.1 </tspan>
<tspan x="10" y="858">  ├── ramda@0.22.1 </tspan>
<tspan x="10" y="874">  ├── ramda-fantasy@0.6.1 </tspan>
<tspan x="10" y="890">  ├── readtable@0.0.1 </tspan>
<tspan x="10" y="906">  ├─┬ resolve@1.3.2 </tspan>
<tspan x="10" y="922">  │ └── path-parse@1.0.5 </tspan>
<tspan x="10" y="938">  ├── semver@5.3.0 </tspan>
<tspan x="10" y="954">  ├─┬ shift-codegen@4.0.3 </tspan>
<tspan x="10" y="970">  │ ├── esutils@2.0.2 </tspan>
<tspan x="10" y="986">  │ └── object-assign@3.0.0 </tspan>
<tspan x="10" y="1002">  ├─┬ shift-js@0.2.1 </tspan>
<tspan x="10" y="1018">  │ ├─┬ grunt@0.4.5 </tspan>
<tspan x="10" y="1034">  │ │ ├── async@0.1.22 </tspan>
<tspan x="10" y="1050">  │ │ ├── coffee-script@1.3.3 </tspan>
<tspan x="10" y="1066">  │ │ ├── colors@0.6.2 </tspan>
<tspan x="10" y="1082">  │ │ ├── dateformat@1.0.2-1.2.3 </tspan>
<tspan x="10" y="1098">  │ │ ├── eventemitter2@0.4.14 </tspan>
<tspan x="10" y="1114">  │ │ ├── exit@0.1.2 </tspan>
<tspan x="10" y="1130">  │ │ ├─┬ findup-sync@0.1.3 </tspan>
<tspan x="10" y="1146">  │ │ │ ├─┬ glob@3.2.11 </tspan>
<tspan x="10" y="1162">  │ │ │ │ ├── inherits@2.0.3 </tspan>
<tspan x="10" y="1178">  │ │ │ │ └── minimatch@0.3.0 </tspan>
<tspan x="10" y="1194">  │ │ │ └── lodash@2.4.2 </tspan>
<tspan x="10" y="1210">  │ │ ├── getobject@0.1.0 </tspan>
<tspan x="10" y="1226">  │ │ ├─┬ glob@3.1.21 </tspan>
<tspan x="10" y="1242">  │ │ │ ├── graceful-fs@1.2.3 </tspan>
<tspan x="10" y="1258">  │ │ │ ├── inherits@1.0.2 </tspan>
<tspan x="10" y="1274">  │ │ │ └── minimatch@0.2.14 </tspan>
<tspan x="10" y="1290">  │ │ ├─┬ grunt-legacy-log@0.1.3 </tspan>
<tspan x="10" y="1306">  │ │ │ ├─┬ grunt-legacy-log-utils@0.1.1 </tspan>
<tspan x="10" y="1322">  │ │ │ │ ├── lodash@2.4.2 </tspan>
<tspan x="10" y="1338">  │ │ │ │ └── underscore.string@2.3.3 </tspan>
<tspan x="10" y="1354">  │ │ │ ├── lodash@2.4.2 </tspan>
<tspan x="10" y="1370">  │ │ │ └── underscore.string@2.3.3 </tspan>
<tspan x="10" y="1386">  │ │ ├─┬ grunt-legacy-util@0.2.0 </tspan>
<tspan x="10" y="1402">  │ │ │ └── lodash@0.9.2 </tspan>
<tspan x="10" y="1418">  │ │ ├── hooker@0.2.3 </tspan>
<tspan x="10" y="1434">  │ │ ├── iconv-lite@0.2.11 </tspan>
<tspan x="10" y="1450">  │ │ ├─┬ js-yaml@2.0.5 </tspan>
<tspan x="10" y="1466">  │ │ │ ├─┬ argparse@0.1.16 </tspan>
<tspan x="10" y="1482">  │ │ │ │ ├── underscore@1.7.0 </tspan>
<tspan x="10" y="1498">  │ │ │ │ └── underscore.string@2.4.0 </tspan>
<tspan x="10" y="1514">  │ │ │ └── esprima@1.0.4 </tspan>
<tspan x="10" y="1530">  │ │ ├── lodash@0.9.2 </tspan>
<tspan x="10" y="1546">  │ │ ├─┬ minimatch@0.2.14 </tspan>
<tspan x="10" y="1562">  │ │ │ ├── lru-cache@2.7.3 </tspan>
<tspan x="10" y="1578">  │ │ │ └── sigmund@1.0.1 </tspan>
<tspan x="10" y="1594">  │ │ ├─┬ nopt@1.0.10 </tspan>
<tspan x="10" y="1610">  │ │ │ └── abbrev@1.1.0 </tspan>
<tspan x="10" y="1626">  │ │ ├── rimraf@2.2.8 </tspan>
<tspan x="10" y="1642">  │ │ ├── underscore.string@2.2.1 </tspan>
<tspan x="10" y="1658">  │ │ └── which@1.0.9 </tspan>
<tspan x="10" y="1674">  │ ├─┬ grunt-contrib-jshint@0.7.2 </tspan>
<tspan x="10" y="1690">  │ │ └─┬ jshint@2.3.0 </tspan>
<tspan x="10" y="1706">  │ │   ├── cli@0.4.5 </tspan>
<tspan x="10" y="1722">  │ │   ├── console-browserify@0.1.6 </tspan>
<tspan x="10" y="1738">  │ │   ├── minimatch@0.4.0 </tspan>
<tspan x="10" y="1754">  │ │   ├── shelljs@0.1.4 </tspan>
<tspan x="10" y="1770">  │ │   └── underscore@1.4.4 </tspan>
<tspan x="10" y="1786">  │ └─┬ grunt-contrib-uglify@0.2.7 </tspan>
<tspan x="10" y="1802">  │   ├─┬ grunt-lib-contrib@0.6.1 </tspan>
<tspan x="10" y="1818">  │   │ └── zlib-browserify@0.0.1 </tspan>
<tspan x="10" y="1834">  │   └─┬ uglify-js@2.4.24 </tspan>
<tspan x="10" y="1850">  │     ├── async@0.2.10 </tspan>
<tspan x="10" y="1866">  │     ├─┬ source-map@0.1.34 </tspan>
<tspan x="10" y="1882">  │     │ └── amdefine@1.0.1 </tspan>
<tspan x="10" y="1898">  │     ├── uglify-to-browserify@1.0.2 </tspan>
<tspan x="10" y="1914">  │     └─┬ yargs@3.5.4 </tspan>
<tspan x="10" y="1930">  │       ├── camelcase@1.2.1 </tspan>
<tspan x="10" y="1946">  │       ├── window-size@0.1.0 </tspan>
<tspan x="10" y="1962">  │       └── wordwrap@0.0.2 </tspan>
<tspan x="10" y="1978">  ├─┬ shift-reducer@3.0.3 </tspan>
<tspan x="10" y="1994">  │ └── shift-spec@2015.2.1 </tspan>
<tspan x="10" y="2010">  ├─┬ shift-spidermonkey-converter@1.0.0 </tspan>
<tspan x="10" y="2026">  │ └── shift-ast@1.0.0 </tspan>
<tspan x="10" y="2042">  ├── sweet-spec@3.1.0 </tspan>
<tspan x="10" y="2058">  ├── transit-js@0.8.846 </tspan>
<tspan x="10" y="2074">  ├─┬ utils-dirname@1.0.0 </tspan>
<tspan x="10" y="2090">  │ ├─┬ regex-dirname@1.0.0 </tspan>
<tspan x="10" y="2106">  │ │ ├─┬ check-if-windows@1.0.0 </tspan>
<tspan x="10" y="2122">  │ │ │ └── utils-platform@1.0.0 </tspan>
<tspan x="10" y="2138">  │ │ ├── regex-dirname-posix@1.0.0 </tspan>
<tspan x="10" y="2154">  │ │ └── regex-dirname-windows@1.0.0 </tspan>
<tspan x="10" y="2170">  │ └── validate.io-string-primitive@1.0.1 </tspan>
<tspan x="10" y="2186">  └─┬ yargs@4.8.1 </tspan>
<tspan x="10" y="2202">    ├─┬ cliui@3.2.0 </tspan>
<tspan x="10" y="2218">    │ ├─┬ strip-ansi@3.0.1 </tspan>
<tspan x="10" y="2234">    │ │ └── ansi-regex@2.1.1 </tspan>
<tspan x="10" y="2250">    │ └── wrap-ansi@2.1.0 </tspan>
<tspan x="10" y="2266">    ├── decamelize@1.2.0 </tspan>
<tspan x="10" y="2282">    ├── get-caller-file@1.0.2 </tspan>
<tspan x="10" y="2298">    ├── lodash.assign@4.2.0 </tspan>
<tspan x="10" y="2314">    ├─┬ os-locale@1.4.0 </tspan>
<tspan x="10" y="2330">    │ └─┬ lcid@1.0.0 </tspan>
<tspan x="10" y="2346">    │   └── invert-kv@1.0.0 </tspan>
<tspan x="10" y="2362">    ├─┬ read-pkg-up@1.0.1 </tspan>
<tspan x="10" y="2378">    │ ├─┬ find-up@1.1.2 </tspan>
<tspan x="10" y="2394">    │ │ ├── path-exists@2.1.0 </tspan>
<tspan x="10" y="2410">    │ │ └─┬ pinkie-promise@2.0.1 </tspan>
<tspan x="10" y="2426">    │ │   └── pinkie@2.0.4 </tspan>
<tspan x="10" y="2442">    │ └─┬ read-pkg@1.1.0 </tspan>
<tspan x="10" y="2458">    │   ├─┬ load-json-file@1.1.0 </tspan>
<tspan x="10" y="2474">    │   │ ├── graceful-fs@4.1.11 </tspan>
<tspan x="10" y="2490">    │   │ ├─┬ parse-json@2.2.0 </tspan>
<tspan x="10" y="2506">    │   │ │ └─┬ error-ex@1.3.1 </tspan>
<tspan x="10" y="2522">    │   │ │   └── is-arrayish@0.2.1 </tspan>
<tspan x="10" y="2538">    │   │ ├── pify@2.3.0 </tspan>
<tspan x="10" y="2554">    │   │ └─┬ strip-bom@2.0.0 </tspan>
<tspan x="10" y="2570">    │   │   └── is-utf8@0.2.1 </tspan>
<tspan x="10" y="2586">    │   ├─┬ normalize-package-data@2.3.6 </tspan>
<tspan x="10" y="2602">    │   │ ├── hosted-git-info@2.4.2 </tspan>
<tspan x="10" y="2618">    │   │ ├─┬ is-builtin-module@1.0.0 </tspan>
<tspan x="10" y="2634">    │   │ │ └── builtin-modules@1.1.1 </tspan>
<tspan x="10" y="2650">    │   │ └─┬ validate-npm-package-license@3.0.1 </tspan>
<tspan x="10" y="2666">    │   │   ├─┬ spdx-correct@1.0.2 </tspan>
<tspan x="10" y="2682">    │   │   │ └── spdx-license-ids@1.2.2 </tspan>
<tspan x="10" y="2698">    │   │   └── spdx-expression-parse@1.0.4 </tspan>
<tspan x="10" y="2714">    │   └─┬ path-type@1.1.0 </tspan>
<tspan x="10" y="2730">    │     └── graceful-fs@4.1.11 </tspan>
<tspan x="10" y="2746">    ├── require-directory@2.1.1 </tspan>
<tspan x="10" y="2762">    ├── require-main-filename@1.0.1 </tspan>
<tspan x="10" y="2778">    ├── set-blocking@2.0.0 </tspan>
<tspan x="10" y="2794">    ├─┬ string-width@1.0.2 </tspan>
<tspan x="10" y="2810">    │ ├── code-point-at@1.1.0 </tspan>
<tspan x="10" y="2826">    │ └─┬ is-fullwidth-code-point@1.0.0 </tspan>
<tspan x="10" y="2842">    │   └── number-is-nan@1.0.1 </tspan>
<tspan x="10" y="2858">    ├── which-module@1.0.0 </tspan>
<tspan x="10" y="2874">    ├── window-size@0.2.0 </tspan>
<tspan x="10" y="2890">    ├── y18n@3.2.1 </tspan>
<tspan x="10" y="2906">    └─┬ yargs-parser@2.4.1 </tspan>
<tspan x="10" y="2922">      └── camelcase@3.0.0</tspan>
</text>
</svg>
